<svg xmlns="http://www.w3.org/2000/svg" viewBox="0 0 200 200"><path d="M90 20C92 21 94 23 95 25L98 28L101 25C106 18 113 17 121 20C126 22 130 27 130 33C130 38 128 43 124 46L121 49L135 49C151 49 152 49 154 51C156 54 156 55 156 62C156 69 156 70 154 72C152 74 151 74 98 74C45 74 44 74 42 72C40 70 40 69 40 62C40 55 40 54 42 51C44 49 45 49 59 49L73 49L70 46C66 43 64 38 64 33C64 27 68 22 73 20C79 17 84 17 90 20" fill="black" /><path d="M153 81C156 82 156 84 156 90C156 95 156 96 154 98C152 100 151 100 98 100C45 100 44 100 42 98C40 96 40 95 40 90C40 84 40 82 43 81C44 79 49 79 98 79C147 79 152 79 153 81" fill="black" /><path d="M155 114C156 116 156 117 156 122C156 127 156 128 154 129C152 130 152 130 154 131C156 132 156 133 156 140C156 147 156 148 154 150C152 152 152 152 154 153C156 154 156 155 156 162C156 169 156 170 154 172C152 174 152 174 98 174C44 174 44 174 42 172C40 170 40 169 40 162C40 155 40 154 42 153C44 152 44 152 42 150C40 148 40 147 40 140C40 133 40 132 42 131C44 130 44 130 42 129C40 128 40 127 40 122C40 117 40 116 42 114C44 112 45 112 98 112C151 112 152 112 155 114" fill="black" /><path d="M75 28C73 31 72 33 73 36C74 38 76 40 78 42C82 44 82 44 86 44C90 43 91 43 91 40C91 33 86 27 80 27C78 27 76 28 75 28" fill="black" /><path d="M109 28C107 30 104 33 103 36C102 41 102 43 106 44C110 44 112 44 116 42C120 40 122 38 123 36C124 33 123 31 121 28C118 26 113 25 109 28" fill="black" /><path d="M94 54C94 56 95 56 98 56C101 56 102 56 102 54C102 52 101 52 98 52C95 52 94 52 94 54" fill="black" /><path d="M48 82C46 83 46 85 46 90L46 95L148 95L148 90C148 85 148 83 146 82C144 80 52 80 48 82" fill="black" /><path d="M46 121L46 125L148 125L148 117L46 117L46 121" fill="black" /><path d="M46 139L46 145L148 145L148 133L46 133L46 139" fill="black" /><path d="M46 160L46 166L148 166L148 153L46 153L46 160" fill="black" /></svg>