<svg xmlns="http://www.w3.org/2000/svg" viewBox="0 0 200 200"><path d="M6 103L6 198L34 198C57 198 58 198 54 197C47 195 42 191 40 187C38 183 38 156 40 121C42 93 42 80 42 61C42 44 42 36 43 35C45 34 158 35 160 35C161 36 161 44 161 61C161 79 163 92 166 131C166 156 166 183 166 187C164 191 159 195 154 197C150 198 151 198 172 198L197 198L197 7L6 7L6 103" fill="black" /><path d="M51 81C50 89 49 118 48 141C48 162 48 183 49 183C50 183 57 187 64 189C74 194 85 194 101 189C113 188 124 188 136 189C145 190 148 190 150 189C153 187 158 183 159 182C160 181 158 166 156 140C153 116 151 91 150 81L150 64L51 64L51 81" fill="black" /><path d="M116 89C122 90 124 95 124 113C124 133 124 139 122 140C119 142 115 140 114 136C114 134 114 128 114 121C114 106 113 105 108 104C103 103 101 104 100 109C100 115 98 118 94 118C90 118 88 115 88 108C88 100 90 92 94 91C98 88 112 87 116 89" fill="black" /><path d="M132 111C132 121 132 135 131 136C130 137 129 137 128 137C126 136 126 136 126 115C126 102 126 93 127 93C127 92 128 92 129 92C131 93 131 93 132 111" fill="black" /><path d="M98 99C96 100 96 103 96 107C96 110 96 112 98 112C98 112 99 110 99 106C100 99 100 98 98 99" fill="black" /><path d="M110 103C111 103 110 105 110 107C109 113 110 114 111 108C112 103 112 101 110 103" fill="black" /><path d="M105 115C105 118 104 123 104 125C103 130 103 134 104 140C106 145 106 156 104 166C104 174 105 178 107 175C108 173 108 146 107 138C106 129 107 118 109 113C110 110 110 111 106 115" fill="black" /></svg>