<svg xmlns="http://www.w3.org/2000/svg" viewBox="0 0 200 200"><path d="M5 18C5 30 5 32 6 31C8 28 8 25 8 22L9 17L173 17L174 22C174 25 175 28 177 29L179 33L179 95C179 161 179 159 172 164C167 167 37 167 34 164C27 159 27 161 27 95L27 33L29 29C31 28 32 25 32 22L33 17L63 17C95 17 97 17 97 20C97 21 93 21 63 21L32 21L32 30L59 30C87 30 90 30 90 32C91 33 91 34 91 34C91 35 77 35 59 35L30 35L30 65L58 99C87 127 89 132 89 134L89 137L107 137L107 134C107 132 109 128 148 99L176 65L176 35L145 35C121 35 111 35 111 34C111 34 111 33 112 32C112 30 115 30 145 30L176 30L176 21L145 21C113 21 109 21 109 20C109 17 111 17 145 17L181 17L182 22C182 25 183 28 184 29C185 31 185 38 185 95L185 154L184 156L160 156C140 156 134 156 134 157C134 158 141 158 159 158C182 158 185 158 186 158C187 159 187 162 187 166C187 173 185 173 178 174L172 174L172 177C172 179 171 182 171 184L169 187L103 187C50 187 35 187 34 186C32 184 31 181 31 178L31 175L25 175C19 175 18 174 16 172C15 169 15 162 16 160C18 158 19 158 26 158L33 157L37 156L28 155C23 155 19 154 18 154C17 153 17 147 17 141C17 133 17 130 18 129C19 127 22 127 28 127L37 127L37 121L30 121C22 121 18 121 17 118C16 117 16 107 16 95C16 79 16 75 18 74C19 73 22 73 28 73L37 73L37 68L30 68C24 68 23 68 22 66C21 64 21 57 21 52C21 43 21 41 22 40C23 39 29 39 54 39C70 39 85 39 85 38C85 38 83 36 81 34L78 31L72 30C67 30 65 30 65 28C66 27 69 27 79 28C83 28 84 28 85 27C85 25 86 23 86 20L85 17L64 17C40 17 38 17 38 20C38 22 36 23 35 23C33 23 33 23 34 22C35 21 35 22 34 23C33 26 27 26 26 23C23 21 24 22 25 26C25 29 24 29 23 28C22 27 21 25 21 24C21 22 21 21 20 23C19 26 13 26 13 23C13 21 13 21 12 22C11 23 11 25 11 27C10 30 10 31 9 33C9 35 8 35 7 35C5 33 5 33 5 55C5 72 5 72 7 70C8 68 10 68 15 68C22 68 24 68 24 71C24 73 23 73 17 73L9 73L9 120L17 120C24 120 24 120 24 122C24 124 23 125 18 125L13 125L13 150L21 150C33 150 32 151 22 129C15 125 13 124 13 127C13 128 14 131 14 135C14 138 15 141 15 141C15 141 16 134 17 127C18 120 19 111 19 108C20 104 20 99 20 95L19 88L20 97C21 104 21 111 21 117L21 131L33 131L33 137L25 137C19 137 18 137 18 138C18 140 20 141 25 141L31 141L31 140C31 137 29 137 23 137L18 137L19 131C19 127 19 125 20 125C20 123 22 123 28 123L37 123L37 120C37 116 37 116 43 116C46 116 49 116 50 117C50 118 53 127 55 138C57 150 59 157 59 157C59 158 75 158 95 158L129 158L130 131C130 118 131 106 131 106C131 106 132 106 133 107C134 108 135 114 134 131L134 158L175 158" fill="black" /></svg>